<mxfile host="app.diagrams.net" modified="2021-03-19T00:23:42.016Z" agent="5.0 (Windows)" etag="T0bcE_bo7-jDf4LAfMzA" version="13.6.9" type="github">
  <diagram id="RBY_qGcu0u82SndiiHq1" name="Page-1">
    <mxGraphModel dx="2062" dy="1932" grid="1" gridSize="10" guides="1" tooltips="1" connect="1" arrows="1" fold="1" page="1" pageScale="1" pageWidth="827" pageHeight="1169" math="0" shadow="0">
      <root>
        <mxCell id="0" />
        <mxCell id="1" parent="0" />
        <mxCell id="v1fHsWat2vEy8Y8We9v5-13" value="" style="edgeStyle=orthogonalEdgeStyle;rounded=0;orthogonalLoop=1;jettySize=auto;html=1;" edge="1" parent="1" source="v1fHsWat2vEy8Y8We9v5-1">
          <mxGeometry relative="1" as="geometry">
            <mxPoint x="770" y="120" as="targetPoint" />
          </mxGeometry>
        </mxCell>
        <mxCell id="v1fHsWat2vEy8Y8We9v5-1" value="&lt;div&gt;&lt;font style=&quot;font-size: 18px&quot;&gt;Automóvel&lt;/font&gt;&lt;/div&gt;" style="rounded=1;whiteSpace=wrap;html=1;" vertex="1" parent="1">
          <mxGeometry x="520" y="90" width="120" height="60" as="geometry" />
        </mxCell>
        <mxCell id="v1fHsWat2vEy8Y8We9v5-2" value="&lt;font style=&quot;font-size: 16px&quot;&gt;Cesar&lt;/font&gt;" style="rounded=1;whiteSpace=wrap;html=1;" vertex="1" parent="1">
          <mxGeometry x="294" y="240" width="120" height="60" as="geometry" />
        </mxCell>
        <mxCell id="v1fHsWat2vEy8Y8We9v5-3" value="" style="endArrow=classic;html=1;entryX=0;entryY=0.5;entryDx=0;entryDy=0;" edge="1" parent="1" source="v1fHsWat2vEy8Y8We9v5-2" target="v1fHsWat2vEy8Y8We9v5-1">
          <mxGeometry width="50" height="50" relative="1" as="geometry">
            <mxPoint x="500" y="280" as="sourcePoint" />
            <mxPoint x="610" y="210" as="targetPoint" />
            <Array as="points">
              <mxPoint x="350" y="120" />
            </Array>
          </mxGeometry>
        </mxCell>
        <mxCell id="v1fHsWat2vEy8Y8We9v5-4" value="&lt;font style=&quot;font-size: 14px&quot;&gt;Dono&lt;/font&gt;" style="text;html=1;strokeColor=none;fillColor=none;align=center;verticalAlign=middle;whiteSpace=wrap;rounded=0;strokeWidth=2;fontStyle=1" vertex="1" parent="1">
          <mxGeometry x="360" y="170" width="40" height="20" as="geometry" />
        </mxCell>
        <mxCell id="v1fHsWat2vEy8Y8We9v5-7" value="&lt;b&gt;&lt;font style=&quot;font-size: 14px&quot;&gt;Estaciona&lt;/font&gt;&lt;/b&gt;" style="text;html=1;strokeColor=none;fillColor=none;align=center;verticalAlign=middle;whiteSpace=wrap;rounded=0;rotation=0;" vertex="1" parent="1">
          <mxGeometry x="690" y="90" width="40" height="20" as="geometry" />
        </mxCell>
        <mxCell id="v1fHsWat2vEy8Y8We9v5-40" value="" style="edgeStyle=orthogonalEdgeStyle;rounded=0;orthogonalLoop=1;jettySize=auto;html=1;exitX=0;exitY=0.5;exitDx=0;exitDy=0;" edge="1" parent="1" source="v1fHsWat2vEy8Y8We9v5-39" target="v1fHsWat2vEy8Y8We9v5-10">
          <mxGeometry relative="1" as="geometry" />
        </mxCell>
        <mxCell id="v1fHsWat2vEy8Y8We9v5-10" value="&lt;font style=&quot;font-size: 16px&quot;&gt;São Luís - MA&lt;/font&gt;" style="rounded=1;whiteSpace=wrap;html=1;strokeWidth=2;" vertex="1" parent="1">
          <mxGeometry x="770" y="240" width="120" height="60" as="geometry" />
        </mxCell>
        <mxCell id="v1fHsWat2vEy8Y8We9v5-14" value="&lt;div style=&quot;font-size: 14px&quot;&gt;&lt;b&gt;&lt;font style=&quot;font-size: 14px&quot;&gt;Rodam&lt;/font&gt;&lt;/b&gt;&lt;/div&gt;" style="text;html=1;strokeColor=none;fillColor=none;align=center;verticalAlign=middle;whiteSpace=wrap;rounded=0;" vertex="1" parent="1">
          <mxGeometry x="530" y="180" width="40" height="20" as="geometry" />
        </mxCell>
        <mxCell id="v1fHsWat2vEy8Y8We9v5-16" value="&lt;font size=&quot;1&quot;&gt;&lt;b style=&quot;font-size: 14px&quot;&gt;Localizada&lt;/b&gt;&lt;/font&gt;" style="text;html=1;strokeColor=none;fillColor=none;align=center;verticalAlign=middle;whiteSpace=wrap;rounded=0;" vertex="1" parent="1">
          <mxGeometry x="850" y="180" width="40" height="20" as="geometry" />
        </mxCell>
        <mxCell id="v1fHsWat2vEy8Y8We9v5-19" value="" style="edgeStyle=orthogonalEdgeStyle;rounded=0;orthogonalLoop=1;jettySize=auto;html=1;" edge="1" parent="1" source="v1fHsWat2vEy8Y8We9v5-18" target="v1fHsWat2vEy8Y8We9v5-1">
          <mxGeometry relative="1" as="geometry" />
        </mxCell>
        <mxCell id="v1fHsWat2vEy8Y8We9v5-18" value="&lt;font style=&quot;font-size: 16px&quot;&gt;Ford&lt;/font&gt;" style="rounded=1;whiteSpace=wrap;html=1;strokeWidth=2;" vertex="1" parent="1">
          <mxGeometry x="520" y="-50" width="120" height="60" as="geometry" />
        </mxCell>
        <mxCell id="v1fHsWat2vEy8Y8We9v5-21" value="&lt;font size=&quot;1&quot;&gt;&lt;b style=&quot;font-size: 14px&quot;&gt;Tipo&lt;/b&gt;&lt;/font&gt;" style="text;html=1;strokeColor=none;fillColor=none;align=center;verticalAlign=middle;whiteSpace=wrap;rounded=0;" vertex="1" parent="1">
          <mxGeometry x="530" y="30" width="40" height="20" as="geometry" />
        </mxCell>
        <mxCell id="v1fHsWat2vEy8Y8We9v5-22" style="edgeStyle=orthogonalEdgeStyle;rounded=0;orthogonalLoop=1;jettySize=auto;html=1;exitX=0.5;exitY=1;exitDx=0;exitDy=0;" edge="1" parent="1" source="v1fHsWat2vEy8Y8We9v5-4" target="v1fHsWat2vEy8Y8We9v5-4">
          <mxGeometry relative="1" as="geometry" />
        </mxCell>
        <mxCell id="v1fHsWat2vEy8Y8We9v5-28" value="&lt;font style=&quot;font-size: 16px&quot;&gt;Estradas ( Rota 101 e Rodovia)&lt;/font&gt;" style="whiteSpace=wrap;html=1;rounded=1;" vertex="1" parent="1">
          <mxGeometry x="520" y="240" width="120" height="60" as="geometry" />
        </mxCell>
        <mxCell id="v1fHsWat2vEy8Y8We9v5-29" value="&lt;font style=&quot;font-size: 16px&quot;&gt;Casa&lt;/font&gt;" style="rounded=1;whiteSpace=wrap;html=1;strokeWidth=2;" vertex="1" parent="1">
          <mxGeometry x="770" y="90" width="120" height="60" as="geometry" />
        </mxCell>
        <mxCell id="v1fHsWat2vEy8Y8We9v5-37" value="" style="endArrow=classic;html=1;entryX=0.5;entryY=0;entryDx=0;entryDy=0;" edge="1" parent="1" source="v1fHsWat2vEy8Y8We9v5-29" target="v1fHsWat2vEy8Y8We9v5-10">
          <mxGeometry width="50" height="50" relative="1" as="geometry">
            <mxPoint x="700" y="230" as="sourcePoint" />
            <mxPoint x="750" y="180" as="targetPoint" />
          </mxGeometry>
        </mxCell>
        <mxCell id="v1fHsWat2vEy8Y8We9v5-38" value="" style="endArrow=classic;html=1;exitX=0.5;exitY=1;exitDx=0;exitDy=0;" edge="1" parent="1" source="v1fHsWat2vEy8Y8We9v5-1" target="v1fHsWat2vEy8Y8We9v5-28">
          <mxGeometry width="50" height="50" relative="1" as="geometry">
            <mxPoint x="200" y="470" as="sourcePoint" />
            <mxPoint x="240" y="440" as="targetPoint" />
          </mxGeometry>
        </mxCell>
        <mxCell id="v1fHsWat2vEy8Y8We9v5-39" value="&lt;font style=&quot;font-size: 16px&quot;&gt;Capital&lt;/font&gt;" style="rounded=1;whiteSpace=wrap;html=1;strokeWidth=2;" vertex="1" parent="1">
          <mxGeometry x="970" y="240" width="120" height="60" as="geometry" />
        </mxCell>
        <mxCell id="v1fHsWat2vEy8Y8We9v5-42" value="&lt;font size=&quot;1&quot;&gt;&lt;b style=&quot;font-size: 14px&quot;&gt;é&lt;/b&gt;&lt;/font&gt;" style="text;html=1;strokeColor=none;fillColor=none;align=center;verticalAlign=middle;whiteSpace=wrap;rounded=0;" vertex="1" parent="1">
          <mxGeometry x="910" y="240" width="40" height="20" as="geometry" />
        </mxCell>
        <mxCell id="v1fHsWat2vEy8Y8We9v5-43" value="" style="whiteSpace=wrap;html=1;aspect=fixed;strokeWidth=2;" vertex="1" parent="1">
          <mxGeometry x="80" y="390" width="190" height="190" as="geometry" />
        </mxCell>
        <mxCell id="v1fHsWat2vEy8Y8We9v5-44" value="" style="endArrow=classic;html=1;exitX=1;exitY=0.5;exitDx=0;exitDy=0;" edge="1" parent="1" source="v1fHsWat2vEy8Y8We9v5-2" target="v1fHsWat2vEy8Y8We9v5-29">
          <mxGeometry width="50" height="50" relative="1" as="geometry">
            <mxPoint x="390" y="350" as="sourcePoint" />
            <mxPoint x="440" y="300" as="targetPoint" />
          </mxGeometry>
        </mxCell>
        <mxCell id="v1fHsWat2vEy8Y8We9v5-45" value="&lt;font size=&quot;1&quot;&gt;&lt;b style=&quot;font-size: 14px&quot;&gt;Mora&lt;/b&gt;&lt;/font&gt;" style="text;html=1;strokeColor=none;fillColor=none;align=center;verticalAlign=middle;whiteSpace=wrap;rounded=0;" vertex="1" parent="1">
          <mxGeometry x="660" y="190" width="40" height="20" as="geometry" />
        </mxCell>
        <mxCell id="v1fHsWat2vEy8Y8We9v5-46" value="Cesár" style="text;html=1;strokeColor=none;fillColor=none;align=center;verticalAlign=middle;whiteSpace=wrap;rounded=0;fontStyle=1;fontSize=16;" vertex="1" parent="1">
          <mxGeometry x="100" y="410" width="40" height="20" as="geometry" />
        </mxCell>
        <mxCell id="v1fHsWat2vEy8Y8We9v5-47" value="É uma Pessoa" style="text;html=1;strokeColor=none;fillColor=none;align=center;verticalAlign=middle;whiteSpace=wrap;rounded=0;fontSize=15;" vertex="1" parent="1">
          <mxGeometry x="100" y="460" width="110" height="20" as="geometry" />
        </mxCell>
        <mxCell id="v1fHsWat2vEy8Y8We9v5-49" value="Possui 2 Automóveis" style="text;html=1;strokeColor=none;fillColor=none;align=center;verticalAlign=middle;whiteSpace=wrap;rounded=0;fontSize=15;" vertex="1" parent="1">
          <mxGeometry x="100" y="495" width="140" height="20" as="geometry" />
        </mxCell>
        <mxCell id="v1fHsWat2vEy8Y8We9v5-50" value="" style="whiteSpace=wrap;html=1;strokeWidth=2;fontSize=15;" vertex="1" parent="1">
          <mxGeometry x="410" y="390" width="190" height="190" as="geometry" />
        </mxCell>
        <mxCell id="v1fHsWat2vEy8Y8We9v5-52" value="" style="shape=flexArrow;endArrow=classic;html=1;fontSize=15;fillColor=#60a917;strokeColor=#2D7600;" edge="1" parent="1">
          <mxGeometry width="50" height="50" relative="1" as="geometry">
            <mxPoint x="240" y="480" as="sourcePoint" />
            <mxPoint x="408" y="428" as="targetPoint" />
            <Array as="points">
              <mxPoint x="240" y="430" />
            </Array>
          </mxGeometry>
        </mxCell>
        <mxCell id="v1fHsWat2vEy8Y8We9v5-54" value="" style="shape=link;html=1;labelBackgroundColor=#00CCCC;fontSize=15;fontColor=#007FFF;fillColor=#d80073;strokeColor=#A50040;" edge="1" parent="1">
          <mxGeometry width="100" relative="1" as="geometry">
            <mxPoint x="153" y="483" as="sourcePoint" />
            <mxPoint x="210" y="483" as="targetPoint" />
          </mxGeometry>
        </mxCell>
        <mxCell id="v1fHsWat2vEy8Y8We9v5-57" value="&lt;div&gt;Pessoa&lt;/div&gt;" style="text;html=1;strokeColor=none;fillColor=none;align=center;verticalAlign=middle;whiteSpace=wrap;rounded=0;fontSize=16;fontStyle=1" vertex="1" parent="1">
          <mxGeometry x="450" y="410" width="40" height="20" as="geometry" />
        </mxCell>
        <mxCell id="v1fHsWat2vEy8Y8We9v5-59" value="Mora em São Luís" style="text;html=1;strokeColor=none;fillColor=none;align=center;verticalAlign=middle;whiteSpace=wrap;rounded=0;fontSize=16;fontColor=#000000;" vertex="1" parent="1">
          <mxGeometry x="440" y="460" width="140" height="20" as="geometry" />
        </mxCell>
        <mxCell id="v1fHsWat2vEy8Y8We9v5-60" value="" style="shape=link;html=1;labelBackgroundColor=#00CCCC;fontSize=15;fontColor=#007FFF;fillColor=#d80073;strokeColor=#A50040;" edge="1" parent="1">
          <mxGeometry width="100" relative="1" as="geometry">
            <mxPoint x="513" y="484.5" as="sourcePoint" />
            <mxPoint x="570" y="484.5" as="targetPoint" />
          </mxGeometry>
        </mxCell>
        <mxCell id="v1fHsWat2vEy8Y8We9v5-61" value="" style="shape=flexArrow;endArrow=classic;html=1;fontSize=15;fillColor=#60a917;strokeColor=#2D7600;exitX=1;exitY=0.5;exitDx=0;exitDy=0;width=10;endSize=18.29;" edge="1" parent="1" source="v1fHsWat2vEy8Y8We9v5-50">
          <mxGeometry width="50" height="50" relative="1" as="geometry">
            <mxPoint x="620" y="482" as="sourcePoint" />
            <mxPoint x="720" y="430" as="targetPoint" />
            <Array as="points">
              <mxPoint x="600" y="430" />
            </Array>
          </mxGeometry>
        </mxCell>
        <mxCell id="v1fHsWat2vEy8Y8We9v5-62" value="" style="whiteSpace=wrap;html=1;strokeWidth=2;fontSize=15;" vertex="1" parent="1">
          <mxGeometry x="720" y="390" width="190" height="190" as="geometry" />
        </mxCell>
        <mxCell id="v1fHsWat2vEy8Y8We9v5-63" value="&lt;b&gt;São Luís&lt;/b&gt;" style="text;html=1;strokeColor=none;fillColor=none;align=center;verticalAlign=middle;whiteSpace=wrap;rounded=0;fontSize=16;fontColor=#000000;" vertex="1" parent="1">
          <mxGeometry x="740" y="410" width="70" height="20" as="geometry" />
        </mxCell>
        <mxCell id="v1fHsWat2vEy8Y8We9v5-64" value="É uma Capital" style="text;html=1;strokeColor=none;fillColor=none;align=center;verticalAlign=middle;whiteSpace=wrap;rounded=0;fontSize=16;fontColor=#000000;" vertex="1" parent="1">
          <mxGeometry x="740" y="460" width="110" height="20" as="geometry" />
        </mxCell>
        <mxCell id="v1fHsWat2vEy8Y8We9v5-66" value="" style="shape=link;html=1;labelBackgroundColor=#00CCCC;fontSize=15;fontColor=#007FFF;fillColor=#d80073;strokeColor=#A50040;" edge="1" parent="1">
          <mxGeometry width="100" relative="1" as="geometry">
            <mxPoint x="794" y="485" as="sourcePoint" />
            <mxPoint x="847.5" y="484.5" as="targetPoint" />
          </mxGeometry>
        </mxCell>
        <mxCell id="v1fHsWat2vEy8Y8We9v5-67" value="" style="whiteSpace=wrap;html=1;aspect=fixed;strokeWidth=2;" vertex="1" parent="1">
          <mxGeometry x="75" y="620" width="190" height="190" as="geometry" />
        </mxCell>
        <mxCell id="v1fHsWat2vEy8Y8We9v5-69" value="É um automóvel" style="text;html=1;strokeColor=none;fillColor=none;align=center;verticalAlign=middle;whiteSpace=wrap;rounded=0;fontSize=15;" vertex="1" parent="1">
          <mxGeometry x="50" y="690" width="185" height="20" as="geometry" />
        </mxCell>
        <mxCell id="v1fHsWat2vEy8Y8We9v5-71" value="É uma bicicleta" style="text;html=1;strokeColor=none;fillColor=none;align=center;verticalAlign=middle;whiteSpace=wrap;rounded=0;fontSize=16;fontColor=#000000;" vertex="1" parent="1">
          <mxGeometry x="75" y="730" width="130" height="20" as="geometry" />
        </mxCell>
        <mxCell id="v1fHsWat2vEy8Y8We9v5-72" value="" style="shape=flexArrow;endArrow=classic;html=1;labelBackgroundColor=#00CCCC;fontSize=16;fontColor=#000000;fillColor=#60a917;strokeColor=#2D7600;entryX=0;entryY=0.421;entryDx=0;entryDy=0;entryPerimeter=0;exitX=1;exitY=0.25;exitDx=0;exitDy=0;" edge="1" parent="1" source="v1fHsWat2vEy8Y8We9v5-49" target="v1fHsWat2vEy8Y8We9v5-73">
          <mxGeometry width="50" height="50" relative="1" as="geometry">
            <mxPoint x="270" y="500" as="sourcePoint" />
            <mxPoint x="400" y="650" as="targetPoint" />
            <Array as="points" />
          </mxGeometry>
        </mxCell>
        <mxCell id="v1fHsWat2vEy8Y8We9v5-73" value="" style="whiteSpace=wrap;html=1;strokeWidth=2;fontSize=15;" vertex="1" parent="1">
          <mxGeometry x="400" y="620" width="190" height="190" as="geometry" />
        </mxCell>
        <mxCell id="v1fHsWat2vEy8Y8We9v5-74" value="Automóvel" style="text;html=1;strokeColor=none;fillColor=none;align=center;verticalAlign=middle;whiteSpace=wrap;rounded=0;fontSize=16;fontStyle=1" vertex="1" parent="1">
          <mxGeometry x="440" y="640" width="40" height="20" as="geometry" />
        </mxCell>
        <mxCell id="v1fHsWat2vEy8Y8We9v5-75" value="Tem um tipo Ford" style="text;html=1;strokeColor=none;fillColor=none;align=center;verticalAlign=middle;whiteSpace=wrap;rounded=0;fontSize=16;fontColor=#000000;" vertex="1" parent="1">
          <mxGeometry x="400" y="690" width="156" height="20" as="geometry" />
        </mxCell>
        <mxCell id="v1fHsWat2vEy8Y8We9v5-76" value="" style="shape=link;html=1;labelBackgroundColor=#00CCCC;fontSize=15;fontColor=#007FFF;fillColor=#d80073;strokeColor=#A50040;width=4;" edge="1" parent="1">
          <mxGeometry width="100" relative="1" as="geometry">
            <mxPoint x="506" y="709" as="sourcePoint" />
            <mxPoint x="540" y="710" as="targetPoint" />
          </mxGeometry>
        </mxCell>
        <mxCell id="v1fHsWat2vEy8Y8We9v5-77" value="Ford" style="text;html=1;strokeColor=none;fillColor=none;align=center;verticalAlign=middle;whiteSpace=wrap;rounded=0;fontSize=16;fontColor=#000000;" vertex="1" parent="1">
          <mxGeometry x="90" y="640" width="40" height="20" as="geometry" />
        </mxCell>
        <mxCell id="v1fHsWat2vEy8Y8We9v5-78" value="" style="shape=link;html=1;labelBackgroundColor=#00CCCC;fontSize=15;fontColor=#007FFF;fillColor=#d80073;strokeColor=#A50040;exitX=0.427;exitY=1.05;exitDx=0;exitDy=0;exitPerimeter=0;" edge="1" parent="1" source="v1fHsWat2vEy8Y8We9v5-69">
          <mxGeometry width="100" relative="1" as="geometry">
            <mxPoint x="140" y="714.5" as="sourcePoint" />
            <mxPoint x="197" y="710" as="targetPoint" />
          </mxGeometry>
        </mxCell>
        <mxCell id="v1fHsWat2vEy8Y8We9v5-79" value="Dirigi em rodovias" style="text;html=1;strokeColor=none;fillColor=none;align=center;verticalAlign=middle;whiteSpace=wrap;rounded=0;fontSize=16;fontColor=#000000;" vertex="1" parent="1">
          <mxGeometry x="400" y="730" width="166" height="20" as="geometry" />
        </mxCell>
        <mxCell id="v1fHsWat2vEy8Y8We9v5-80" value="" style="shape=flexArrow;endArrow=classic;html=1;labelBackgroundColor=#00CCCC;fontSize=16;fontColor=#000000;fillColor=#60a917;strokeColor=#2D7600;exitX=1;exitY=0.5;exitDx=0;exitDy=0;" edge="1" parent="1" source="v1fHsWat2vEy8Y8We9v5-79">
          <mxGeometry width="50" height="50" relative="1" as="geometry">
            <mxPoint x="650" y="710" as="sourcePoint" />
            <mxPoint x="720" y="640" as="targetPoint" />
            <Array as="points">
              <mxPoint x="630" y="640" />
            </Array>
          </mxGeometry>
        </mxCell>
        <mxCell id="v1fHsWat2vEy8Y8We9v5-81" value="&lt;b&gt;São Luís&lt;/b&gt;" style="text;html=1;strokeColor=none;fillColor=none;align=center;verticalAlign=middle;whiteSpace=wrap;rounded=0;fontSize=16;fontColor=#000000;" vertex="1" parent="1">
          <mxGeometry x="740" y="410" width="70" height="20" as="geometry" />
        </mxCell>
        <mxCell id="v1fHsWat2vEy8Y8We9v5-82" value="É uma Capital" style="text;html=1;strokeColor=none;fillColor=none;align=center;verticalAlign=middle;whiteSpace=wrap;rounded=0;fontSize=16;fontColor=#000000;" vertex="1" parent="1">
          <mxGeometry x="740" y="460" width="110" height="20" as="geometry" />
        </mxCell>
        <mxCell id="v1fHsWat2vEy8Y8We9v5-83" value="" style="shape=link;html=1;labelBackgroundColor=#00CCCC;fontSize=15;fontColor=#007FFF;fillColor=#d80073;strokeColor=#A50040;" edge="1" parent="1">
          <mxGeometry width="100" relative="1" as="geometry">
            <mxPoint x="794" y="485" as="sourcePoint" />
            <mxPoint x="847.5" y="484.5" as="targetPoint" />
          </mxGeometry>
        </mxCell>
        <mxCell id="v1fHsWat2vEy8Y8We9v5-85" value="" style="whiteSpace=wrap;html=1;strokeWidth=2;fontSize=15;" vertex="1" parent="1">
          <mxGeometry x="720" y="620" width="190" height="190" as="geometry" />
        </mxCell>
        <mxCell id="v1fHsWat2vEy8Y8We9v5-86" value="&lt;b&gt;Rodovias&lt;/b&gt;" style="text;html=1;strokeColor=none;fillColor=none;align=center;verticalAlign=middle;whiteSpace=wrap;rounded=0;fontSize=16;fontColor=#000000;" vertex="1" parent="1">
          <mxGeometry x="740" y="640" width="70" height="20" as="geometry" />
        </mxCell>
        <mxCell id="v1fHsWat2vEy8Y8We9v5-87" value="Rodovia 101 e 81" style="text;html=1;strokeColor=none;fillColor=none;align=center;verticalAlign=middle;whiteSpace=wrap;rounded=0;fontSize=16;fontColor=#000000;" vertex="1" parent="1">
          <mxGeometry x="740" y="690" width="140" height="20" as="geometry" />
        </mxCell>
        <mxCell id="v1fHsWat2vEy8Y8We9v5-88" value="Estaciona o automóvel em casa" style="text;html=1;strokeColor=none;fillColor=none;align=center;verticalAlign=middle;whiteSpace=wrap;rounded=0;fontSize=16;fontColor=#000000;" vertex="1" parent="1">
          <mxGeometry x="740" y="740" width="140" height="20" as="geometry" />
        </mxCell>
        <mxCell id="v1fHsWat2vEy8Y8We9v5-89" value="" style="shape=link;html=1;labelBackgroundColor=#00CCCC;fontSize=15;fontColor=#007FFF;fillColor=#d80073;strokeColor=#A50040;" edge="1" parent="1">
          <mxGeometry width="100" relative="1" as="geometry">
            <mxPoint x="785" y="780" as="sourcePoint" />
            <mxPoint x="835" y="780.5" as="targetPoint" />
          </mxGeometry>
        </mxCell>
        <mxCell id="v1fHsWat2vEy8Y8We9v5-90" value="" style="shape=flexArrow;endArrow=classic;html=1;labelBackgroundColor=#00CCCC;fontSize=16;fontColor=#000000;fillColor=#60a917;strokeColor=#2D7600;exitX=1;exitY=0.5;exitDx=0;exitDy=0;" edge="1" parent="1" source="v1fHsWat2vEy8Y8We9v5-88">
          <mxGeometry width="50" height="50" relative="1" as="geometry">
            <mxPoint x="890.0000000000002" y="710" as="sourcePoint" />
            <mxPoint x="1020.95" y="646.02" as="targetPoint" />
            <Array as="points">
              <mxPoint x="930.95" y="646.02" />
            </Array>
          </mxGeometry>
        </mxCell>
        <mxCell id="v1fHsWat2vEy8Y8We9v5-91" value="" style="whiteSpace=wrap;html=1;strokeWidth=2;fontSize=15;" vertex="1" parent="1">
          <mxGeometry x="1020" y="620" width="190" height="190" as="geometry" />
        </mxCell>
        <mxCell id="v1fHsWat2vEy8Y8We9v5-92" value="Casa" style="text;html=1;strokeColor=none;fillColor=none;align=center;verticalAlign=middle;whiteSpace=wrap;rounded=0;fontSize=16;fontColor=#000000;fontStyle=1" vertex="1" parent="1">
          <mxGeometry x="1040" y="640" width="70" height="20" as="geometry" />
        </mxCell>
        <mxCell id="v1fHsWat2vEy8Y8We9v5-94" value="Ele mora em São Luís" style="text;html=1;strokeColor=none;fillColor=none;align=center;verticalAlign=middle;whiteSpace=wrap;rounded=0;fontSize=16;fontColor=#000000;" vertex="1" parent="1">
          <mxGeometry x="1030" y="690" width="170" height="20" as="geometry" />
        </mxCell>
        <mxCell id="v1fHsWat2vEy8Y8We9v5-95" value="" style="shape=flexArrow;endArrow=classic;html=1;labelBackgroundColor=#00CCCC;fontSize=16;fontColor=#000000;fillColor=#60a917;strokeColor=#2D7600;entryX=1;entryY=0.379;entryDx=0;entryDy=0;entryPerimeter=0;exitX=0;exitY=0.5;exitDx=0;exitDy=0;" edge="1" parent="1" source="v1fHsWat2vEy8Y8We9v5-75" target="v1fHsWat2vEy8Y8We9v5-67">
          <mxGeometry width="50" height="50" relative="1" as="geometry">
            <mxPoint x="490" y="860" as="sourcePoint" />
            <mxPoint x="390" y="959.9899999999998" as="targetPoint" />
            <Array as="points" />
          </mxGeometry>
        </mxCell>
        <mxCell id="v1fHsWat2vEy8Y8We9v5-96" value="" style="shape=link;html=1;labelBackgroundColor=#00CCCC;fontSize=15;fontColor=#007FFF;fillColor=#d80073;strokeColor=#A50040;width=4;" edge="1" parent="1">
          <mxGeometry width="100" relative="1" as="geometry">
            <mxPoint x="160" y="520" as="sourcePoint" />
            <mxPoint x="240" y="520" as="targetPoint" />
          </mxGeometry>
        </mxCell>
        <mxCell id="v1fHsWat2vEy8Y8We9v5-97" value="" style="shape=link;html=1;labelBackgroundColor=#00CCCC;fontSize=15;fontColor=#007FFF;fillColor=#d80073;strokeColor=#A50040;width=4;entryX=0.873;entryY=1;entryDx=0;entryDy=0;entryPerimeter=0;" edge="1" parent="1" target="v1fHsWat2vEy8Y8We9v5-79">
          <mxGeometry width="100" relative="1" as="geometry">
            <mxPoint x="506" y="750" as="sourcePoint" />
            <mxPoint x="540" y="751" as="targetPoint" />
          </mxGeometry>
        </mxCell>
        <mxCell id="v1fHsWat2vEy8Y8We9v5-98" value="" style="shape=link;html=1;labelBackgroundColor=#00CCCC;fontSize=15;fontColor=#007FFF;fillColor=#d80073;strokeColor=#A50040;entryX=1;entryY=1;entryDx=0;entryDy=0;" edge="1" parent="1" target="v1fHsWat2vEy8Y8We9v5-94">
          <mxGeometry width="100" relative="1" as="geometry">
            <mxPoint x="1130" y="710" as="sourcePoint" />
            <mxPoint x="1180" y="710.5" as="targetPoint" />
          </mxGeometry>
        </mxCell>
        <mxCell id="v1fHsWat2vEy8Y8We9v5-100" value="" style="shape=flexArrow;endArrow=classic;html=1;fontSize=15;fillColor=#60a917;strokeColor=#2D7600;entryX=1.011;entryY=0.389;entryDx=0;entryDy=0;entryPerimeter=0;" edge="1" parent="1" target="v1fHsWat2vEy8Y8We9v5-62">
          <mxGeometry width="50" height="50" relative="1" as="geometry">
            <mxPoint x="1230" y="712" as="sourcePoint" />
            <mxPoint x="1398" y="660" as="targetPoint" />
            <Array as="points">
              <mxPoint x="1210" y="464" />
            </Array>
          </mxGeometry>
        </mxCell>
        <mxCell id="v1fHsWat2vEy8Y8We9v5-101" value="Automóvel estaciona em casa" style="text;html=1;strokeColor=none;fillColor=none;align=center;verticalAlign=middle;whiteSpace=wrap;rounded=0;fontSize=16;fontColor=#000000;" vertex="1" parent="1">
          <mxGeometry x="404" y="770" width="166" height="20" as="geometry" />
        </mxCell>
        <mxCell id="v1fHsWat2vEy8Y8We9v5-102" value="" style="shape=flexArrow;endArrow=classic;html=1;labelBackgroundColor=#00CCCC;fontSize=16;fontColor=#000000;fillColor=#60a917;strokeColor=#2D7600;exitX=0.75;exitY=1;exitDx=0;exitDy=0;" edge="1" parent="1" source="v1fHsWat2vEy8Y8We9v5-101" target="v1fHsWat2vEy8Y8We9v5-91">
          <mxGeometry width="50" height="50" relative="1" as="geometry">
            <mxPoint x="576" y="930" as="sourcePoint" />
            <mxPoint x="730" y="830" as="targetPoint" />
            <Array as="points">
              <mxPoint x="529" y="860" />
              <mxPoint x="1126" y="870" />
              <mxPoint x="1130" y="850" />
            </Array>
          </mxGeometry>
        </mxCell>
      </root>
    </mxGraphModel>
  </diagram>
</mxfile>
